PathFileType        4      (X/Y/Z)      C:\Users\pc\Desktop\IMUTRC\Sujet_02\Sujet_02_velo_60.trc         
DataRate	CameraRate	NumFrames	NumMarkers	Units	OrigDataRate	OrigDataStartFrame	OrigNumFrames
60.0	60.0	4	64	mm	60.0	938	1250
Frame#	Time	pHipOrigin			pRightASI			pLeftASI			pRightCSI			pLeftCSI			pRightIschialTub			pLeftIschialTub			pSacrum			pL5SpinalProcess			pL3SpinalProcess			pT12SpinalProcess			pIJ			pT4SpinalProcess			pT8SpinalProcess			pPX			pC7SpinalProcess			pTopOfHead			pRightAuricularis			pLeftAuricularis			pBackOfHead			pRightAcromion			pLeftAcromion			pRightArmLatEpicondyle			pRightArmMedEpicondyle			pLeftArmLatEpicondyle			pLeftArmMedEpicondyle			pRightUlnarStyloid			pRightRadialStyloid			pRightOlecranon			pLeftUlnarStyloid			pLeftRadialStyloid			pLeftOlecranon			pRightTopOfHand			pRightPinky			pRightBallHand			pLeftTopOfHand			pLeftPinky			pLeftBallHand			pRightGreaterTrochanter			pRightKneeLatEpicondyle			pRightKneeMedEpicondyle			pRightPatella			pLeftGreaterTrochanter			pLeftKneeLatEpicondyle			pLeftKneeMedEpicondyle			pLeftPatella			pRightTibialTub			pRightLatMalleolus			pRightMedMalleolus			pLeftTibialTub			pLeftLatMalleolus			pLeftMedMalleolus			pRightHeelFoot			pRightFirstMetatarsal			pRightFifthMetatarsal			pRightPivotFoot			pRightHeelCenter			pRightToe			pLeftHeelFoot			pLeftFirstMetatarsal			pLeftFifthMetatarsal			pLeftPivotFoot			pLeftHeelCenter			pLeftToe			
		X1	Y1	Z1	X2	Y2	Z2	X3	Y3	Z3	X4	Y4	Z4	X5	Y5	Z5	X6	Y6	Z6	X7	Y7	Z7	X8	Y8	Z8	X9	Y9	Z9	X10	Y10	Z10	X11	Y11	Z11	X12	Y12	Z12	X13	Y13	Z13	X14	Y14	Z14	X15	Y15	Z15	X16	Y16	Z16	X17	Y17	Z17	X18	Y18	Z18	X19	Y19	Z19	X20	Y20	Z20	X21	Y21	Z21	X22	Y22	Z22	X23	Y23	Z23	X24	Y24	Z24	X25	Y25	Z25	X26	Y26	Z26	X27	Y27	Z27	X28	Y28	Z28	X29	Y29	Z29	X30	Y30	Z30	X31	Y31	Z31	X32	Y32	Z32	X33	Y33	Z33	X34	Y34	Z34	X35	Y35	Z35	X36	Y36	Z36	X37	Y37	Z37	X38	Y38	Z38	X39	Y39	Z39	X40	Y40	Z40	X41	Y41	Z41	X42	Y42	Z42	X43	Y43	Z43	X44	Y44	Z44	X45	Y45	Z45	X46	Y46	Z46	X47	Y47	Z47	X48	Y48	Z48	X49	Y49	Z49	X50	Y50	Z50	X51	Y51	Z51	X52	Y52	Z52	X53	Y53	Z53	X54	Y54	Z54	X55	Y55	Z55	X56	Y56	Z56	X57	Y57	Z57	X58	Y58	Z58	X59	Y59	Z59	X60	Y60	Z60	X61	Y61	Z61	X62	Y62	Z62	X63	Y63	Z63	X64	Y64	Z64	
938	15.617	0.0	1250.02827	7.654215598496017E-14	46.19174000000001	1369.84165	143.4225000000001	46.76200999999999	1366.87626	-145.6465399999999	-15.454269999999992	1428.63632	116.61988000000008	-14.941030000000007	1426.18417	-120.26959999999991	-44.82308999999999	1178.80175	59.87818000000007	-44.59499000000001	1177.54716	-58.56655999999993	-74.24894	1256.52933	-0.22810999999991852	-55.71522	1373.20624	-1.5397199999999125	-15.22617	1487.83018	7.641600000000093	32.22016	1588.25444	20.30155000000009	291.63524	1634.90239	53.94739000000008	168.62836	1734.47125	53.3771200000001	97.1167	1675.73361	36.896360000000094	197.36988	1550.5597	31.250710000000087	218.52684	1769.71383	65.1816700000001	455.92956	1793.55105	90.21646000000008	367.1958	1757.28198	141.93980000000008	376.14902	1786.93594	16.30968000000009	358.29962	1820.0115	89.47511000000009	179.97670000000002	1702.30811	255.6513100000001	231.24382	1753.23308	-145.9316799999999	257.70428	1417.7442	287.0731000000001	221.32115000000002	1396.35913	237.9159600000001	317.41137	1458.23325	-137.89088999999996	273.95693	1442.37979	-92.49752999999993	364.51554	1163.68964	353.0531500000001	404.94757	1177.205	312.96328000000005	216.98711000000003	1407.7645	282.6820300000001	442.01501	1211.07894	-182.82803999999993	473.89302	1225.16457	-135.78089999999995	277.32151	1450.42057	-139.60169999999994	552.30492	1085.848	337.48482	467.10682	1098.56499	366.85364	405.11865	1137.00108	342.21805000000006	631.05898	1182.05228	-94.60751999999997	561.31516	1168.87908	-151.52030999999994	487.69351	1191.11954	-155.05596999999995	23.49506000000001	1241.75938	178.49400000000009	384.87412	976.52756	189.32910000000004	390.63383	969.57028	103.21858000000003	413.84376	1013.76608	141.82574000000002	23.38099999999999	1214.15839	-172.6772599999999	357.72935	922.29504	-108.86422999999998	361.55015	935.12607	-23.266949999999966	389.4933	966.83299	-70.20003999999997	412.70322	916.25019	140.40007000000003	104.07398	618.91226	84.45675000000004	116.96204	625.92656	17.62129000000003	414.07186	890.30298	-62.44438999999997	300.07522	475.94598	-109.20638999999998	296.48253	474.9195	-40.831219999999995	-2.052969999999999	567.87324	20.130470000000035	133.15766	441.44475	2.167020000000019	112.11476	436.59746	87.36511000000003	140.17197	421.3713	46.876060000000024	27.08775	536.45146	25.548020000000033	199.08069	362.40555	58.05332000000001	223.65925	370.73147	-67.23463999999998	400.27137	321.23217	-36.83934	393.59923	319.46434	-124.48959000000002	420.91508	313.4195	-81.20622000000002	264.71858	357.78638	-70.14300999999999	501.83617	291.23606	-86.90890000000002	
939	15.633	0.0	1250.02827	7.654215598496017E-14	46.362820000000006	1369.7276	143.4225000000001	47.27524999999999	1366.64815	-145.6465399999999	-15.055079999999993	1428.75037	116.50583000000009	-14.256710000000007	1426.18417	-120.38364999999992	-45.10822999999999	1178.9158	59.821150000000074	-44.70904000000001	1177.66121	-58.62358999999993	-74.24894	1256.75743	-0.2851299999999185	-55.37306	1373.32029	-1.6537799999999125	-14.71292	1487.83018	7.7556500000000925	32.84746	1588.19741	20.64372000000009	292.20551	1634.67428	54.973870000000076	169.25565	1734.24314	54.4036000000001	97.744	1675.56253	37.58069000000009	197.99718	1550.44564	31.820980000000084	219.09711	1769.48573	66.3792400000001	456.4428	1793.37997	91.92726000000009	367.65202	1756.88279	143.4225000000001	376.77631	1786.87891	17.90643000000009	358.75583	1819.72637	91.12889000000008	180.20480000000003	1701.73784	256.5637400000001	232.44139	1753.57524	-144.79113999999993	258.10346	1417.23095	287.9285000000001	221.77737000000002	1395.78886	238.71434000000008	318.38083	1458.46136	-137.94791999999995	274.92638	1442.43682	-92.61157999999993	365.42797	1163.11937	353.11017000000004	405.80297	1176.80581	312.96328000000005	217.44333000000003	1407.1372	283.5374300000001	442.69934	1211.07894	-183.05614999999995	474.57734	1225.10754	-135.95197999999993	278.29096	1450.64868	-139.65871999999993	553.27437	1085.50584	337.54185	468.07628	1098.1658	366.91067	406.03108	1136.60189	342.27508000000006	631.80033	1182.33741	-94.83562999999997	562.05651	1168.99313	-151.74840999999995	488.37783	1191.11954	-155.28407999999993	23.55208000000001	1242.95694	178.60805000000008	394.28355	991.0694	191.38207000000003	400.5565	983.99807	105.32857000000003	421.99859	1029.16333	143.82168000000001	21.44208999999999	1213.1319	-172.84833999999992	343.70075	907.46806	-111.71556999999996	348.83316	920.12802	-26.175319999999964	377.63171	950.63737	-73.33650999999998	422.11265	930.96311	142.39601000000002	113.08422	633.91032	86.39566000000005	125.91526	641.0957	19.560210000000033	401.35488	875.64708	-65.58085999999997	291.46416	459.97847	-110.34692999999999	288.38471	459.06604	-41.971749999999986	7.242410000000001	582.41509	22.126410000000035	142.96628	456.61388	4.3340400000000185	121.9804	451.70958	89.53213000000001	150.09464	436.59746	49.043080000000025	36.49718	551.16438	27.543960000000027	209.28849	377.85982	60.277370000000005	214.8201	355.22017	-68.48922999999999	391.2041	304.80844	-38.09393	384.53196	303.15467	-125.74418000000001	411.79079	296.93874	-82.46081000000001	255.82239	342.104	-71.3976	492.65485	274.35611	-88.16349000000001	
940	15.65	0.0	1250.02827	7.654215598496017E-14	46.59093000000001	1369.67057	143.36547000000007	47.73145999999999	1366.42004	-145.6465399999999	-14.655899999999994	1428.86443	116.39177000000008	-13.686440000000006	1426.18417	-120.49770999999991	-45.33633999999999	1179.08688	59.821150000000074	-44.880120000000005	1177.77526	-58.62358999999993	-74.24894	1256.92851	-0.3991899999999185	-55.08792	1373.43434	-1.7678299999999125	-14.19968	1487.8872	7.812680000000093	33.47475	1588.14038	20.871820000000092	292.77578	1634.38915	55.77225000000008	169.88295	1734.01503	55.2019800000001	98.37129	1675.44847	38.09393000000009	198.56745	1550.27456	32.277190000000076	219.7244	1769.20059	67.4057200000001	456.89902	1793.20889	93.52401000000009	368.05121	1756.48361	144.67709000000008	377.46063	1786.82188	19.275070000000085	359.21205	1819.49826	92.55456000000008	180.43291000000002	1701.16758	257.3050900000001	233.58192	1753.9174	-143.8216799999999	258.55968	1416.71771	288.5558000000001	222.23358000000002	1395.27562	239.3986600000001	319.29326	1458.68946	-138.00494999999995	275.83881	1442.55087	-92.72563999999993	366.28337	1162.60613	353.0531500000001	406.60135	1176.46365	312.96328000000005	217.89954000000003	1406.56694	284.16473000000013	443.2696	1211.07894	-183.28424999999993	475.20463	1225.05051	-136.18008999999995	279.20339	1450.81976	-139.71574999999996	554.12978	1085.22071	337.54185	468.98871	1097.76661	366.91067	406.88648	1136.14567	342.27508000000006	632.42762	1182.50849	-95.06373999999997	562.6838	1169.10719	-151.97651999999994	489.00513	1191.17657	-155.51217999999994	23.66614000000001	1244.21153	178.66508000000007	403.06568	1005.7253	193.09287000000003	409.73782	998.53992	107.03937000000003	429.52614	1044.6176	145.41843000000003	19.61722999999999	1212.33353	-173.0194199999999	330.07133	894.1808	-114.33880999999995	336.28726	906.55563	-28.855579999999964	365.94121	935.92445	-76.18784999999997	431.12289	945.73307	143.93574000000004	122.83581	647.8819	88.44862000000003	135.49576	655.1243	21.55614000000003	388.98006	862.24578	-68.37517999999997	282.05474	445.72176	-111.94367999999999	279.26042	444.92338	-43.568499999999986	17.45021	595.30315	24.065330000000035	154.4857	470.81357	6.615110000000018	133.4428	465.85223	91.81321000000001	161.72811	450.9112	51.38118000000002	47.04714	564.33758	29.596930000000032	221.49223	392.85788	62.786550000000005	204.55526	341.70481	-70.42814	380.369	289.52525	-39.97581000000001	373.75389	288.09958	-127.62606000000001	400.95569	281.54149	-84.28567000000001	245.44351	328.18945	-73.27949	481.53461	258.16049	-89.98835000000001	
941	15.667	0.0	1250.02827	7.654215598496017E-14	46.762010000000004	1369.7276	143.30844000000008	48.07361999999999	1366.19193	-145.70356999999993	-14.370759999999994	1428.97848	116.22069000000009	-13.230230000000008	1426.07011	-120.66878999999992	-45.56443999999999	1179.25796	59.87818000000007	-44.994170000000004	1177.83229	-58.56655999999993	-74.19191	1257.0996	-0.45620999999991846	-54.80279	1373.5484	-1.8818899999999126	-13.80049	1487.8872	7.7556500000000925	33.98799	1588.08336	21.042900000000092	293.28902	1634.04699	56.39954000000008	170.45322	1733.78693	55.7722500000001	98.94156	1675.27739	38.43609000000009	199.08069	1550.04646	32.50530000000008	220.29467	1768.91546	68.1470700000001	457.35523	1793.15186	94.89266000000009	368.45039	1756.08442	145.7035700000001	378.14496	1786.76486	20.415610000000086	359.66826	1819.21313	93.75212000000009	180.71805000000003	1700.54028	257.8183300000001	234.55138	1754.25956	-143.13735999999992	259.07292	1416.31852	288.8409300000001	222.80385000000004	1394.81941	239.68380000000008	320.20569	1458.91757	-138.06196999999995	276.69421	1442.66492	-92.89671999999993	367.02472	1162.09288	352.9390900000001	407.3427	1176.06446	312.84923000000003	218.46981000000002	1406.05369	284.4498600000001	443.78285	1211.13596	-183.51235999999994	475.7749	1225.05051	-136.46521999999993	280.0588	1450.99084	-139.77277999999995	554.98518	1084.87855	337.48482	469.73006	1097.42445	366.85364	407.68486	1135.68946	342.16102000000006	633.05492	1182.56552	-95.34886999999998	563.3111	1169.16421	-152.20462999999995	489.5754	1191.17657	-155.74028999999993	23.89424000000001	1245.6372	178.72211000000007	411.3916	1020.55228	194.40449000000004	418.29185	1013.13879	108.40802000000002	436.48341	1060.07187	146.55897000000002	18.02047999999999	1211.64921	-173.1334799999999	317.18327	882.4903	-116.73393999999996	324.2546	894.46594	-31.25070999999997	354.70693	922.8653	-78.69703999999997	439.73394	960.78815	145.07627000000002	133.4428	660.76996	90.38754000000003	145.7606	668.12642	23.438030000000033	376.94739	850.32717	-70.82732999999998	271.90396	433.28991	-114.16772999999999	269.05262	432.49153	-45.792549999999984	28.85558	606.48041	25.719100000000036	167.82998	484.10082	8.83916000000002	146.55897	478.91138	93.98023000000002	175.24347	464.36953	53.662250000000014	58.90872	575.97105	31.364760000000032	235.80597	407.22864	65.35276000000002	192.75071	330.41349	-73.10841	367.76607	275.43962	-42.48499000000001	361.26501	274.47017	-130.19227	388.29573	267.34181	-86.79485000000001	233.46787	316.27084	-75.90272	468.53249	242.76325	-92.49753000000001	
